<?xml version="1.0" standalone="no"?>
<!DOCTYPE svg PUBLIC "-//W3C//DTD SVG 20010904//EN"
 "http://www.w3.org/TR/2001/REC-SVG-20010904/DTD/svg10.dtd">
<svg version="1.0" xmlns="http://www.w3.org/2000/svg"
 width="614.000000pt" height="790.000000pt" viewBox="0 0 614.000000 790.000000"
 preserveAspectRatio="xMidYMid meet">

<g transform="translate(0.000000,790.000000) scale(0.100000,-0.100000)"
fill="#DBC078" stroke="none">
<path d="M2855 6894 c-625 -64 -1134 -331 -1467 -769 -151 -200 -270 -468
-318 -722 -17 -94 -40 -293 -40 -360 l0 -23 459 0 460 0 5 43 c3 23 8 67 11
97 14 131 92 322 178 436 216 285 582 440 991 421 536 -26 942 -346 1032 -814
8 -41 14 -99 14 -129 l0 -54 460 0 460 0 0 86 c0 104 -22 264 -55 394 -163
653 -673 1146 -1370 1325 -205 53 -315 66 -560 70 -121 2 -238 1 -260 -1z"/>
<path d="M1359 4712 c-212 -56 -359 -250 -359 -477 0 -279 217 -495 498 -495
207 0 385 125 462 325 33 83 33 252 2 337 -90 247 -344 377 -603 310z"/>
<path d="M1033 3063 c5 -393 12 -472 52 -648 110 -471 388 -875 777 -1129 515
-335 1181 -376 1743 -106 247 119 477 307 641 526 l59 77 3 -346 2 -347 415 0
415 0 0 1180 0 1180 -1115 0 -1115 0 0 -405 0 -405 460 0 460 0 -6 -27 c-80
-343 -357 -617 -711 -705 -110 -27 -310 -30 -418 -6 -349 78 -615 340 -706
695 -29 115 -39 260 -39 571 l0 282 -461 0 -461 0 5 -387z"/>
</g>
</svg>
