<?xml version="1.0" standalone="no"?>
<!DOCTYPE svg PUBLIC "-//W3C//DTD SVG 20010904//EN"
 "http://www.w3.org/TR/2001/REC-SVG-20010904/DTD/svg10.dtd">
<svg version="1.0" xmlns="http://www.w3.org/2000/svg"
 width="204.000000pt" height="192.000000pt" viewBox="0 0 204.000000 192.000000"
 preserveAspectRatio="xMidYMid meet">

<g transform="translate(0.000000,192.000000) scale(0.100000,-0.100000)"
fill="#DBC078" stroke="none">
<path d="M0 960 l0 -960 1020 0 1020 0 0 960 0 960 -1020 0 -1020 0 0 -960z
m1464 606 c88 -37 148 -124 148 -216 0 -128 -100 -230 -227 -230 -120 0 -212
79 -231 198 -8 50 18 140 51 181 58 68 180 100 259 67z m-610 -58 c16 -40 63
-146 146 -328 21 -47 64 -143 95 -215 31 -71 79 -179 106 -238 27 -59 49 -115
49 -123 0 -9 -26 -74 -57 -145 l-58 -130 -84 3 -85 3 -39 90 c-22 50 -59 133
-83 185 -23 52 -68 154 -99 225 -32 72 -74 168 -95 215 -21 47 -64 144 -95
215 -31 72 -72 163 -91 204 -19 40 -34 75 -34 77 0 2 92 4 204 4 l204 0 16
-42z"/>
</g>
</svg>
